<?xml version="1.0" encoding="utf-8"?>
<!-- Generator: Adobe Illustrator 22.1.0, SVG Export Plug-In . SVG Version: 6.00 Build 0)  -->
<svg version="1.1" xmlns="http://www.w3.org/2000/svg" xmlns:xlink="http://www.w3.org/1999/xlink" x="0px" y="0px"
	 viewBox="0 0 1000 1000" style="enable-background:new 0 0 1000 1000;" xml:space="preserve">
<style type="text/css">
	.st0{display:none;}
	.st1{display:inline;fill:#FFFFFF;stroke:#000000;stroke-miterlimit:10;}
	.st2{display:inline;}
	.st3{display:inline;fill:none;stroke:#000000;stroke-miterlimit:10;}
	.st4{fill:url(#SVGID_1_);}
	.st5{fill:url(#SVGID_2_);}
	.st6{fill:url(#SVGID_3_);}
	.st7{fill:url(#SVGID_4_);}
	.st8{fill:#FDCFA5;}
	.st9{fill:url(#SVGID_5_);}
	.st10{fill:url(#SVGID_6_);}
	.st11{fill:url(#SVGID_7_);}
	.st12{fill:url(#SVGID_8_);}
	.st13{fill:url(#SVGID_9_);}
	.st14{fill:url(#SVGID_10_);}
</style>
<g id="Circle_Bounds" class="st0">
	<circle class="st1" cx="498.1" cy="500" r="494.6"/>
	<path class="st3" d="M3.5,473.9c0,0,242.5-307.8,494.6,0s494.6,0,494.6,0"/>
</g>
<g id="Moon">
	<linearGradient id="SVGID_1_" gradientUnits="userSpaceOnUse" x1="1.501465e-02" y1="500" x2="999.985" y2="500">
		<stop  offset="0" style="stop-color:#2484C6"/>
		<stop  offset="1" style="stop-color:#2484C6;stop-opacity:0"/>
	</linearGradient>
	<path class="st4" d="M1000,500c0,276.1-223.9,500-500,500C225.5,1000,2.7,778.9,0,505c2.7,213.4,176.5,385.6,390.6,385.6
		c215.7,0,390.6-174.9,390.6-390.6S606.3,109.4,390.6,109.4C176.6,109.4,2.7,281.5,0,495C2.7,221.1,225.5,0,500,0
		C776.1,0,1000,223.9,1000,500z"/>
	<linearGradient id="SVGID_2_" gradientUnits="userSpaceOnUse" x1="780.7925" y1="500" x2="0.4292" y2="500">
		<stop  offset="0" style="stop-color:#FFFFFF"/>
		<stop  offset="0.1754" style="stop-color:#F9FBFD;stop-opacity:0.9122"/>
		<stop  offset="0.318" style="stop-color:#EEF1F9;stop-opacity:0.8407"/>
		<stop  offset="0.4492" style="stop-color:#DCE4F4;stop-opacity:0.775"/>
		<stop  offset="0.5736" style="stop-color:#C3D3ED;stop-opacity:0.7128"/>
		<stop  offset="0.6932" style="stop-color:#A5BFE4;stop-opacity:0.6529"/>
		<stop  offset="0.8091" style="stop-color:#81A9DA;stop-opacity:0.5949"/>
		<stop  offset="0.9199" style="stop-color:#5693CE;stop-opacity:0.5393"/>
		<stop  offset="0.9985" style="stop-color:#2484C6;stop-opacity:0.5"/>
	</linearGradient>
	<ellipse class="st5" cx="390.6" cy="500" rx="390.2" ry="390.6"/>
</g>
<g id="Ginko_and_Ginseng">
	<g>
		<path class="st8" d="M469.9,716.4c0,0-111,23.8-256.9-97.9S90.4,386,96.2,366c5.8-20-2.2-51.8-24,4.9s-21,126.9,0,157.7
			s38.5,23.3,64.6,47.4s23.2,94.2,53.7,119.2c30.5,25,30.3,60.8,72.5,75.8s185.1,18.3,277.3-24.2
			C632.6,704.4,533.7,674.3,469.9,716.4z"/>
		<linearGradient id="SVGID_3_" gradientUnits="userSpaceOnUse" x1="17.4224" y1="616.183" x2="763.7993" y2="616.183">
			<stop  offset="0" style="stop-color:#FDCFA5"/>
			<stop  offset="8.644750e-02" style="stop-color:#E8BD90"/>
			<stop  offset="0.2834" style="stop-color:#CBA06E"/>
			<stop  offset="0.477" style="stop-color:#B68D56"/>
			<stop  offset="0.6637" style="stop-color:#A88046"/>
			<stop  offset="0.8405" style="stop-color:#A0793C"/>
			<stop  offset="0.997" style="stop-color:#9D773A"/>
		</linearGradient>
		<path class="st6" d="M751.8,568.7c-9.1,69.5-99.7,135.7-193.9,194.1c-36.3,22.5-72.4,76.5-105.6,87.3
			c-98.8,32.2-142.1-9.8-213.8-50.6c-27.8-15.9-83.6-9-113.3-31.3c31.2,0.7,122-39.6,208.4,14.6c79.5,47.9,155.5-19.5,204.3-82.5
			c-63.4,18.6-128.3,27.7-177,23.8c-26.4-2.1-64.7-15.9-112.2-34.6c-30.1-11.9-84,9.7-115.4-7.5c-49.5-27.1-82-90.1-115.1-130.7
			c-2.1-2.6,0.8-6.5,3.3-4.5c28.2,22,64.9,66.1,136.5,93.5c39.6,15.2,68.3-6.3,106,8.3c78,29.2,145.9,22.1,199.6,2.7
			c-11.1-0.2-22.1-0.5-32.7-0.9c-44.8-1.8-99.9-29.9-151.1-56c-77.2-39.4-159.3-70.2-214.8-131.7c-20.2-22.4-28.8-63.4-42.2-85.1
			c-2.3-3.7,1.3-8.3,4.8-6.1c31.8,20.6,38.1,35.2,98.4,104.5c22.8,26.1,96.1,70.9,149.5,78.6c176.5,116.6,305.4-20.4,310.7-27.2
			c0.1-0.2,0.3-0.3,0.5-0.5c1.1-1,6-5.4,13.5-11.6c8.9-35.8,37.6-62,71.6-62c8.7,0,17.1,1.7,24.8,4.9c25.9-6.9,48.7-2.1,58.2,28.4
			c2.4,5.2,4.6,11.2,6.4,18.2C767,527,763,548.4,751.8,568.7z"/>
		<linearGradient id="SVGID_4_" gradientUnits="userSpaceOnUse" x1="495.4354" y1="817.3451" x2="713.1077" y2="599.6728">
			<stop  offset="0" style="stop-color:#FDCFA5"/>
			<stop  offset="8.644750e-02" style="stop-color:#E8BD90"/>
			<stop  offset="0.2834" style="stop-color:#CBA06E"/>
			<stop  offset="0.477" style="stop-color:#B68D56"/>
			<stop  offset="0.6637" style="stop-color:#A88046"/>
			<stop  offset="0.8405" style="stop-color:#A0793C"/>
			<stop  offset="0.997" style="stop-color:#9D773A"/>
		</linearGradient>
		<path class="st7" d="M729.1,615.7c0,0-69.7,176-119.5,181c-49.8,5-62.4-14.8-75.5-29.4c-30.7-34-83.6-12.5-90-3.2
			c-6.4,9.3,32.9-36.9,56.8-42.5c23.9-5.6,69-7.3,69-7.3s31.7-27.3,41.7-57c10-29.8,3.7-56.9,3.7-56.9"/>
		<linearGradient id="SVGID_5_" gradientUnits="userSpaceOnUse" x1="608.9523" y1="596.611" x2="189.9373" y2="177.596">
			<stop  offset="0" style="stop-color:#BCD63C"/>
			<stop  offset="5.930816e-02" style="stop-color:#ABC63D"/>
			<stop  offset="0.1808" style="stop-color:#92B23E"/>
			<stop  offset="0.3161" style="stop-color:#7FA43F"/>
			<stop  offset="0.471" style="stop-color:#739C3F"/>
			<stop  offset="0.6623" style="stop-color:#6B973F"/>
			<stop  offset="0.9985" style="stop-color:#69953F"/>
		</linearGradient>
		<path class="st9" d="M738.6,465.5c-10.2,5.6-23.2,1.9-34.6,1.7c-33.6-0.7-59.8-40.2-107.6-51.5c-5.3-1.3-10.5-3.1-15.4-5.3
			c-6.3-2.9-12.9,3.7-9.8,10c17.2,35.9,20.6,73.2,8.3,93c-11.9,19.1-24.8,20.1-41.1,27c-4.4,1.9,2.2,6.8-13.7,15.1
			c-19.3,10.2-12.6-39.2-52.6-39.5c-20.5-0.2-45.3-29.1-63.9-33.6c-55.9-13.5-37.3-147.2-77-184.4C173.7,146.2,86.5,319.6,51,423.6
			c-2.9,8.5-15.7,5.5-14.4-3.4c12.6-89.5,64.1-225.3,287.8-273.5c236.1-50.9,417.1,151.1,416.4,244
			C740.5,428.6,761.4,452.8,738.6,465.5z"/>
	</g>
</g>
<g id="Text">
</g>
</svg>
